<mxfile host="Electron" modified="2023-11-11T21:19:17.169Z" agent="Mozilla/5.0 (Windows NT 10.0; Win64; x64) AppleWebKit/537.36 (KHTML, like Gecko) draw.io/22.0.3 Chrome/114.0.5735.289 Electron/25.8.4 Safari/537.36" etag="K90o6CesfnsnaIEz-MFY" version="22.0.3" type="device">
  <diagram id="C5RBs43oDa-KdzZeNtuy" name="Page-1">
    <mxGraphModel dx="1843" dy="654" grid="1" gridSize="10" guides="1" tooltips="1" connect="1" arrows="1" fold="1" page="1" pageScale="1" pageWidth="827" pageHeight="1169" math="0" shadow="0">
      <root>
        <mxCell id="WIyWlLk6GJQsqaUBKTNV-0" />
        <mxCell id="WIyWlLk6GJQsqaUBKTNV-1" parent="WIyWlLk6GJQsqaUBKTNV-0" />
        <mxCell id="ZQnLBsJhKJ1D6nGST1T2-0" value="User" style="swimlane;fontStyle=1;align=center;verticalAlign=top;childLayout=stackLayout;horizontal=1;startSize=26;horizontalStack=0;resizeParent=1;resizeParentMax=0;resizeLast=0;collapsible=1;marginBottom=0;whiteSpace=wrap;html=1;" parent="WIyWlLk6GJQsqaUBKTNV-1" vertex="1">
          <mxGeometry x="-150" y="90" width="250" height="294" as="geometry" />
        </mxCell>
        <mxCell id="ZQnLBsJhKJ1D6nGST1T2-4" value="- username: String" style="text;strokeColor=none;fillColor=none;align=left;verticalAlign=top;spacingLeft=4;spacingRight=4;overflow=hidden;rotatable=0;points=[[0,0.5],[1,0.5]];portConstraint=eastwest;whiteSpace=wrap;html=1;" parent="ZQnLBsJhKJ1D6nGST1T2-0" vertex="1">
          <mxGeometry y="26" width="250" height="26" as="geometry" />
        </mxCell>
        <mxCell id="ZQnLBsJhKJ1D6nGST1T2-5" value="- password: String" style="text;strokeColor=none;fillColor=none;align=left;verticalAlign=top;spacingLeft=4;spacingRight=4;overflow=hidden;rotatable=0;points=[[0,0.5],[1,0.5]];portConstraint=eastwest;whiteSpace=wrap;html=1;" parent="ZQnLBsJhKJ1D6nGST1T2-0" vertex="1">
          <mxGeometry y="52" width="250" height="26" as="geometry" />
        </mxCell>
        <mxCell id="ZQnLBsJhKJ1D6nGST1T2-1" value="- score: int" style="text;strokeColor=none;fillColor=none;align=left;verticalAlign=top;spacingLeft=4;spacingRight=4;overflow=hidden;rotatable=0;points=[[0,0.5],[1,0.5]];portConstraint=eastwest;whiteSpace=wrap;html=1;" parent="ZQnLBsJhKJ1D6nGST1T2-0" vertex="1">
          <mxGeometry y="78" width="250" height="26" as="geometry" />
        </mxCell>
        <mxCell id="ZQnLBsJhKJ1D6nGST1T2-2" value="" style="line;strokeWidth=1;fillColor=none;align=left;verticalAlign=middle;spacingTop=-1;spacingLeft=3;spacingRight=3;rotatable=0;labelPosition=right;points=[];portConstraint=eastwest;strokeColor=inherit;" parent="ZQnLBsJhKJ1D6nGST1T2-0" vertex="1">
          <mxGeometry y="104" width="250" height="8" as="geometry" />
        </mxCell>
        <mxCell id="ZQnLBsJhKJ1D6nGST1T2-6" value="+ User(username: String, password: String)" style="text;strokeColor=none;fillColor=none;align=left;verticalAlign=top;spacingLeft=4;spacingRight=4;overflow=hidden;rotatable=0;points=[[0,0.5],[1,0.5]];portConstraint=eastwest;whiteSpace=wrap;html=1;" parent="ZQnLBsJhKJ1D6nGST1T2-0" vertex="1">
          <mxGeometry y="112" width="250" height="26" as="geometry" />
        </mxCell>
        <mxCell id="ZQnLBsJhKJ1D6nGST1T2-7" value="+ getUsername(): String" style="text;strokeColor=none;fillColor=none;align=left;verticalAlign=top;spacingLeft=4;spacingRight=4;overflow=hidden;rotatable=0;points=[[0,0.5],[1,0.5]];portConstraint=eastwest;whiteSpace=wrap;html=1;" parent="ZQnLBsJhKJ1D6nGST1T2-0" vertex="1">
          <mxGeometry y="138" width="250" height="26" as="geometry" />
        </mxCell>
        <mxCell id="ZQnLBsJhKJ1D6nGST1T2-8" value="+ getPassword(): String" style="text;strokeColor=none;fillColor=none;align=left;verticalAlign=top;spacingLeft=4;spacingRight=4;overflow=hidden;rotatable=0;points=[[0,0.5],[1,0.5]];portConstraint=eastwest;whiteSpace=wrap;html=1;" parent="ZQnLBsJhKJ1D6nGST1T2-0" vertex="1">
          <mxGeometry y="164" width="250" height="26" as="geometry" />
        </mxCell>
        <mxCell id="ZQnLBsJhKJ1D6nGST1T2-9" value="+ getScore(): int" style="text;strokeColor=none;fillColor=none;align=left;verticalAlign=top;spacingLeft=4;spacingRight=4;overflow=hidden;rotatable=0;points=[[0,0.5],[1,0.5]];portConstraint=eastwest;whiteSpace=wrap;html=1;" parent="ZQnLBsJhKJ1D6nGST1T2-0" vertex="1">
          <mxGeometry y="190" width="250" height="26" as="geometry" />
        </mxCell>
        <mxCell id="ZQnLBsJhKJ1D6nGST1T2-10" value="+ setUsername(username: String): void" style="text;strokeColor=none;fillColor=none;align=left;verticalAlign=top;spacingLeft=4;spacingRight=4;overflow=hidden;rotatable=0;points=[[0,0.5],[1,0.5]];portConstraint=eastwest;whiteSpace=wrap;html=1;" parent="ZQnLBsJhKJ1D6nGST1T2-0" vertex="1">
          <mxGeometry y="216" width="250" height="26" as="geometry" />
        </mxCell>
        <mxCell id="ZQnLBsJhKJ1D6nGST1T2-11" value="+ setPassword(password: String): void" style="text;strokeColor=none;fillColor=none;align=left;verticalAlign=top;spacingLeft=4;spacingRight=4;overflow=hidden;rotatable=0;points=[[0,0.5],[1,0.5]];portConstraint=eastwest;whiteSpace=wrap;html=1;" parent="ZQnLBsJhKJ1D6nGST1T2-0" vertex="1">
          <mxGeometry y="242" width="250" height="26" as="geometry" />
        </mxCell>
        <mxCell id="ZQnLBsJhKJ1D6nGST1T2-3" value="+ setScore(score: int): void" style="text;strokeColor=none;fillColor=none;align=left;verticalAlign=top;spacingLeft=4;spacingRight=4;overflow=hidden;rotatable=0;points=[[0,0.5],[1,0.5]];portConstraint=eastwest;whiteSpace=wrap;html=1;" parent="ZQnLBsJhKJ1D6nGST1T2-0" vertex="1">
          <mxGeometry y="268" width="250" height="26" as="geometry" />
        </mxCell>
        <mxCell id="ZQnLBsJhKJ1D6nGST1T2-40" value="Scoreboard" style="swimlane;fontStyle=1;align=center;verticalAlign=top;childLayout=stackLayout;horizontal=1;startSize=26;horizontalStack=0;resizeParent=1;resizeParentMax=0;resizeLast=0;collapsible=1;marginBottom=0;whiteSpace=wrap;html=1;" parent="WIyWlLk6GJQsqaUBKTNV-1" vertex="1">
          <mxGeometry x="-80" y="460" width="200" height="86" as="geometry" />
        </mxCell>
        <mxCell id="ZQnLBsJhKJ1D6nGST1T2-41" value="- userList: List&amp;lt;User&amp;gt;" style="text;strokeColor=none;fillColor=none;align=left;verticalAlign=top;spacingLeft=4;spacingRight=4;overflow=hidden;rotatable=0;points=[[0,0.5],[1,0.5]];portConstraint=eastwest;whiteSpace=wrap;html=1;" parent="ZQnLBsJhKJ1D6nGST1T2-40" vertex="1">
          <mxGeometry y="26" width="200" height="26" as="geometry" />
        </mxCell>
        <mxCell id="ZQnLBsJhKJ1D6nGST1T2-42" value="" style="line;strokeWidth=1;fillColor=none;align=left;verticalAlign=middle;spacingTop=-1;spacingLeft=3;spacingRight=3;rotatable=0;labelPosition=right;points=[];portConstraint=eastwest;strokeColor=inherit;" parent="ZQnLBsJhKJ1D6nGST1T2-40" vertex="1">
          <mxGeometry y="52" width="200" height="8" as="geometry" />
        </mxCell>
        <mxCell id="ZQnLBsJhKJ1D6nGST1T2-43" value="+ showScoreboardPage(): void" style="text;strokeColor=none;fillColor=none;align=left;verticalAlign=top;spacingLeft=4;spacingRight=4;overflow=hidden;rotatable=0;points=[[0,0.5],[1,0.5]];portConstraint=eastwest;whiteSpace=wrap;html=1;" parent="ZQnLBsJhKJ1D6nGST1T2-40" vertex="1">
          <mxGeometry y="60" width="200" height="26" as="geometry" />
        </mxCell>
        <mxCell id="ZQnLBsJhKJ1D6nGST1T2-12" value="Question" style="swimlane;fontStyle=1;align=center;verticalAlign=top;childLayout=stackLayout;horizontal=1;startSize=26;horizontalStack=0;resizeParent=1;resizeParentMax=0;resizeLast=0;collapsible=1;marginBottom=0;whiteSpace=wrap;html=1;" parent="WIyWlLk6GJQsqaUBKTNV-1" vertex="1">
          <mxGeometry x="350" y="130" width="406" height="138" as="geometry" />
        </mxCell>
        <mxCell id="ZQnLBsJhKJ1D6nGST1T2-18" value="- question: String" style="text;strokeColor=none;fillColor=none;align=left;verticalAlign=top;spacingLeft=4;spacingRight=4;overflow=hidden;rotatable=0;points=[[0,0.5],[1,0.5]];portConstraint=eastwest;whiteSpace=wrap;html=1;" parent="ZQnLBsJhKJ1D6nGST1T2-12" vertex="1">
          <mxGeometry y="26" width="406" height="26" as="geometry" />
        </mxCell>
        <mxCell id="ZQnLBsJhKJ1D6nGST1T2-19" value="- options: List&amp;lt;String&amp;gt;" style="text;strokeColor=none;fillColor=none;align=left;verticalAlign=top;spacingLeft=4;spacingRight=4;overflow=hidden;rotatable=0;points=[[0,0.5],[1,0.5]];portConstraint=eastwest;whiteSpace=wrap;html=1;" parent="ZQnLBsJhKJ1D6nGST1T2-12" vertex="1">
          <mxGeometry y="52" width="406" height="26" as="geometry" />
        </mxCell>
        <mxCell id="ZQnLBsJhKJ1D6nGST1T2-13" value="- correctOptionIndex: int" style="text;strokeColor=none;fillColor=none;align=left;verticalAlign=top;spacingLeft=4;spacingRight=4;overflow=hidden;rotatable=0;points=[[0,0.5],[1,0.5]];portConstraint=eastwest;whiteSpace=wrap;html=1;" parent="ZQnLBsJhKJ1D6nGST1T2-12" vertex="1">
          <mxGeometry y="78" width="406" height="26" as="geometry" />
        </mxCell>
        <mxCell id="ZQnLBsJhKJ1D6nGST1T2-14" value="" style="line;strokeWidth=1;fillColor=none;align=left;verticalAlign=middle;spacingTop=-1;spacingLeft=3;spacingRight=3;rotatable=0;labelPosition=right;points=[];portConstraint=eastwest;strokeColor=inherit;" parent="ZQnLBsJhKJ1D6nGST1T2-12" vertex="1">
          <mxGeometry y="104" width="406" height="8" as="geometry" />
        </mxCell>
        <mxCell id="ZQnLBsJhKJ1D6nGST1T2-15" value="+ Question(question: String, options: List&amp;lt;string&amp;gt;, correctOptionIndex:int)" style="text;strokeColor=none;fillColor=none;align=left;verticalAlign=top;spacingLeft=4;spacingRight=4;overflow=hidden;rotatable=0;points=[[0,0.5],[1,0.5]];portConstraint=eastwest;whiteSpace=wrap;html=1;" parent="ZQnLBsJhKJ1D6nGST1T2-12" vertex="1">
          <mxGeometry y="112" width="406" height="26" as="geometry" />
        </mxCell>
        <mxCell id="ZQnLBsJhKJ1D6nGST1T2-20" value="MillionWinner" style="swimlane;fontStyle=1;align=center;verticalAlign=top;childLayout=stackLayout;horizontal=1;startSize=26;horizontalStack=0;resizeParent=1;resizeParentMax=0;resizeLast=0;collapsible=1;marginBottom=0;whiteSpace=wrap;html=1;" parent="WIyWlLk6GJQsqaUBKTNV-1" vertex="1">
          <mxGeometry x="340" y="334" width="450" height="450" as="geometry" />
        </mxCell>
        <mxCell id="ZQnLBsJhKJ1D6nGST1T2-24" value="- userList: List&amp;lt;User&amp;gt;" style="text;strokeColor=none;fillColor=none;align=left;verticalAlign=top;spacingLeft=4;spacingRight=4;overflow=hidden;rotatable=0;points=[[0,0.5],[1,0.5]];portConstraint=eastwest;whiteSpace=wrap;html=1;" parent="ZQnLBsJhKJ1D6nGST1T2-20" vertex="1">
          <mxGeometry y="26" width="450" height="26" as="geometry" />
        </mxCell>
        <mxCell id="ZQnLBsJhKJ1D6nGST1T2-25" value="- topUsers: List&amp;lt;User&amp;gt;" style="text;strokeColor=none;fillColor=none;align=left;verticalAlign=top;spacingLeft=4;spacingRight=4;overflow=hidden;rotatable=0;points=[[0,0.5],[1,0.5]];portConstraint=eastwest;whiteSpace=wrap;html=1;" parent="ZQnLBsJhKJ1D6nGST1T2-20" vertex="1">
          <mxGeometry y="52" width="450" height="26" as="geometry" />
        </mxCell>
        <mxCell id="ZQnLBsJhKJ1D6nGST1T2-26" value="- questions: List&amp;lt;Question&amp;gt;" style="text;strokeColor=none;fillColor=none;align=left;verticalAlign=top;spacingLeft=4;spacingRight=4;overflow=hidden;rotatable=0;points=[[0,0.5],[1,0.5]];portConstraint=eastwest;whiteSpace=wrap;html=1;" parent="ZQnLBsJhKJ1D6nGST1T2-20" vertex="1">
          <mxGeometry y="78" width="450" height="26" as="geometry" />
        </mxCell>
        <mxCell id="ZQnLBsJhKJ1D6nGST1T2-27" value="- currentQuestionIndex: int" style="text;strokeColor=none;fillColor=none;align=left;verticalAlign=top;spacingLeft=4;spacingRight=4;overflow=hidden;rotatable=0;points=[[0,0.5],[1,0.5]];portConstraint=eastwest;whiteSpace=wrap;html=1;" parent="ZQnLBsJhKJ1D6nGST1T2-20" vertex="1">
          <mxGeometry y="104" width="450" height="26" as="geometry" />
        </mxCell>
        <mxCell id="ZQnLBsJhKJ1D6nGST1T2-21" value="- currentUser: User" style="text;strokeColor=none;fillColor=none;align=left;verticalAlign=top;spacingLeft=4;spacingRight=4;overflow=hidden;rotatable=0;points=[[0,0.5],[1,0.5]];portConstraint=eastwest;whiteSpace=wrap;html=1;" parent="ZQnLBsJhKJ1D6nGST1T2-20" vertex="1">
          <mxGeometry y="130" width="450" height="26" as="geometry" />
        </mxCell>
        <mxCell id="ZQnLBsJhKJ1D6nGST1T2-22" value="" style="line;strokeWidth=1;fillColor=none;align=left;verticalAlign=middle;spacingTop=-1;spacingLeft=3;spacingRight=3;rotatable=0;labelPosition=right;points=[];portConstraint=eastwest;strokeColor=inherit;" parent="ZQnLBsJhKJ1D6nGST1T2-20" vertex="1">
          <mxGeometry y="156" width="450" height="8" as="geometry" />
        </mxCell>
        <mxCell id="ZQnLBsJhKJ1D6nGST1T2-34" value="+ main(String[] arg): void;" style="text;strokeColor=none;fillColor=none;align=left;verticalAlign=top;spacingLeft=4;spacingRight=4;overflow=hidden;rotatable=0;points=[[0,0.5],[1,0.5]];portConstraint=eastwest;whiteSpace=wrap;html=1;" parent="ZQnLBsJhKJ1D6nGST1T2-20" vertex="1">
          <mxGeometry y="164" width="450" height="26" as="geometry" />
        </mxCell>
        <mxCell id="ZQnLBsJhKJ1D6nGST1T2-32" value="+ showSignupPage(): void" style="text;strokeColor=none;fillColor=none;align=left;verticalAlign=top;spacingLeft=4;spacingRight=4;overflow=hidden;rotatable=0;points=[[0,0.5],[1,0.5]];portConstraint=eastwest;whiteSpace=wrap;html=1;" parent="ZQnLBsJhKJ1D6nGST1T2-20" vertex="1">
          <mxGeometry y="190" width="450" height="26" as="geometry" />
        </mxCell>
        <mxCell id="ZQnLBsJhKJ1D6nGST1T2-31" value="+ showLoginPage(): void" style="text;strokeColor=none;fillColor=none;align=left;verticalAlign=top;spacingLeft=4;spacingRight=4;overflow=hidden;rotatable=0;points=[[0,0.5],[1,0.5]];portConstraint=eastwest;whiteSpace=wrap;html=1;" parent="ZQnLBsJhKJ1D6nGST1T2-20" vertex="1">
          <mxGeometry y="216" width="450" height="26" as="geometry" />
        </mxCell>
        <mxCell id="ZQnLBsJhKJ1D6nGST1T2-30" value="+ showMainMenu(): void" style="text;strokeColor=none;fillColor=none;align=left;verticalAlign=top;spacingLeft=4;spacingRight=4;overflow=hidden;rotatable=0;points=[[0,0.5],[1,0.5]];portConstraint=eastwest;whiteSpace=wrap;html=1;" parent="ZQnLBsJhKJ1D6nGST1T2-20" vertex="1">
          <mxGeometry y="242" width="450" height="26" as="geometry" />
        </mxCell>
        <mxCell id="ZQnLBsJhKJ1D6nGST1T2-29" value="+ showCategoriesPage(): void" style="text;strokeColor=none;fillColor=none;align=left;verticalAlign=top;spacingLeft=4;spacingRight=4;overflow=hidden;rotatable=0;points=[[0,0.5],[1,0.5]];portConstraint=eastwest;whiteSpace=wrap;html=1;" parent="ZQnLBsJhKJ1D6nGST1T2-20" vertex="1">
          <mxGeometry y="268" width="450" height="26" as="geometry" />
        </mxCell>
        <mxCell id="ZQnLBsJhKJ1D6nGST1T2-28" value="+ startGame(categoryQuestions: List&amp;lt;Question): void" style="text;strokeColor=none;fillColor=none;align=left;verticalAlign=top;spacingLeft=4;spacingRight=4;overflow=hidden;rotatable=0;points=[[0,0.5],[1,0.5]];portConstraint=eastwest;whiteSpace=wrap;html=1;" parent="ZQnLBsJhKJ1D6nGST1T2-20" vertex="1">
          <mxGeometry y="294" width="450" height="26" as="geometry" />
        </mxCell>
        <mxCell id="ZQnLBsJhKJ1D6nGST1T2-35" value="+ showQuestionPage(question: Question) void" style="text;strokeColor=none;fillColor=none;align=left;verticalAlign=top;spacingLeft=4;spacingRight=4;overflow=hidden;rotatable=0;points=[[0,0.5],[1,0.5]];portConstraint=eastwest;whiteSpace=wrap;html=1;" parent="ZQnLBsJhKJ1D6nGST1T2-20" vertex="1">
          <mxGeometry y="320" width="450" height="26" as="geometry" />
        </mxCell>
        <mxCell id="ZQnLBsJhKJ1D6nGST1T2-36" value="+ checkAnswer(question: Question, String: answer): boolean" style="text;strokeColor=none;fillColor=none;align=left;verticalAlign=top;spacingLeft=4;spacingRight=4;overflow=hidden;rotatable=0;points=[[0,0.5],[1,0.5]];portConstraint=eastwest;whiteSpace=wrap;html=1;" parent="ZQnLBsJhKJ1D6nGST1T2-20" vertex="1">
          <mxGeometry y="346" width="450" height="26" as="geometry" />
        </mxCell>
        <mxCell id="ZQnLBsJhKJ1D6nGST1T2-37" value="+ endGame(): void" style="text;strokeColor=none;fillColor=none;align=left;verticalAlign=top;spacingLeft=4;spacingRight=4;overflow=hidden;rotatable=0;points=[[0,0.5],[1,0.5]];portConstraint=eastwest;whiteSpace=wrap;html=1;" parent="ZQnLBsJhKJ1D6nGST1T2-20" vertex="1">
          <mxGeometry y="372" width="450" height="26" as="geometry" />
        </mxCell>
        <mxCell id="ZQnLBsJhKJ1D6nGST1T2-38" value="+ showScoreboardPage(): void" style="text;strokeColor=none;fillColor=none;align=left;verticalAlign=top;spacingLeft=4;spacingRight=4;overflow=hidden;rotatable=0;points=[[0,0.5],[1,0.5]];portConstraint=eastwest;whiteSpace=wrap;html=1;" parent="ZQnLBsJhKJ1D6nGST1T2-20" vertex="1">
          <mxGeometry y="398" width="450" height="26" as="geometry" />
        </mxCell>
        <mxCell id="ZQnLBsJhKJ1D6nGST1T2-23" value="+ authenticatoinUser(username: String, password:String): User" style="text;strokeColor=none;fillColor=none;align=left;verticalAlign=top;spacingLeft=4;spacingRight=4;overflow=hidden;rotatable=0;points=[[0,0.5],[1,0.5]];portConstraint=eastwest;whiteSpace=wrap;html=1;" parent="ZQnLBsJhKJ1D6nGST1T2-20" vertex="1">
          <mxGeometry y="424" width="450" height="26" as="geometry" />
        </mxCell>
        <mxCell id="Q4dV0WzYGVip3ccKOifd-1" value="1" style="text;strokeColor=none;align=center;fillColor=none;html=1;verticalAlign=middle;whiteSpace=wrap;rounded=0;" parent="WIyWlLk6GJQsqaUBKTNV-1" vertex="1">
          <mxGeometry x="270" y="570" width="60" height="30" as="geometry" />
        </mxCell>
        <mxCell id="Q4dV0WzYGVip3ccKOifd-2" value="1..*" style="text;strokeColor=none;align=center;fillColor=none;html=1;verticalAlign=middle;whiteSpace=wrap;rounded=0;" parent="WIyWlLk6GJQsqaUBKTNV-1" vertex="1">
          <mxGeometry x="-70" y="390" width="60" height="30" as="geometry" />
        </mxCell>
        <mxCell id="Q4dV0WzYGVip3ccKOifd-7" value="" style="endArrow=open;endFill=1;endSize=12;html=1;rounded=0;exitX=0.5;exitY=0;exitDx=0;exitDy=0;entryX=0.508;entryY=1.023;entryDx=0;entryDy=0;entryPerimeter=0;" parent="WIyWlLk6GJQsqaUBKTNV-1" source="ZQnLBsJhKJ1D6nGST1T2-40" target="ZQnLBsJhKJ1D6nGST1T2-3" edge="1">
          <mxGeometry width="160" relative="1" as="geometry">
            <mxPoint x="150" y="370" as="sourcePoint" />
            <mxPoint x="-20" y="400" as="targetPoint" />
            <Array as="points">
              <mxPoint x="20" y="420" />
              <mxPoint x="-23" y="420" />
            </Array>
          </mxGeometry>
        </mxCell>
        <mxCell id="Q4dV0WzYGVip3ccKOifd-9" value="1..*" style="text;strokeColor=none;align=center;fillColor=none;html=1;verticalAlign=middle;whiteSpace=wrap;rounded=0;" parent="WIyWlLk6GJQsqaUBKTNV-1" vertex="1">
          <mxGeometry x="110" y="210" width="60" height="30" as="geometry" />
        </mxCell>
        <mxCell id="Q4dV0WzYGVip3ccKOifd-10" value="" style="endArrow=none;html=1;rounded=0;exitX=1;exitY=0.5;exitDx=0;exitDy=0;entryX=-0.012;entryY=-0.115;entryDx=0;entryDy=0;entryPerimeter=0;" parent="WIyWlLk6GJQsqaUBKTNV-1" source="ZQnLBsJhKJ1D6nGST1T2-7" target="ZQnLBsJhKJ1D6nGST1T2-29" edge="1">
          <mxGeometry width="50" height="50" relative="1" as="geometry">
            <mxPoint x="160" y="340" as="sourcePoint" />
            <mxPoint x="210" y="290" as="targetPoint" />
            <Array as="points">
              <mxPoint x="200" y="241" />
              <mxPoint x="200" y="600" />
            </Array>
          </mxGeometry>
        </mxCell>
        <mxCell id="Q4dV0WzYGVip3ccKOifd-12" value="" style="endArrow=open;endFill=1;endSize=12;html=1;rounded=0;exitX=0.5;exitY=0;exitDx=0;exitDy=0;entryX=1;entryY=0.5;entryDx=0;entryDy=0;" parent="WIyWlLk6GJQsqaUBKTNV-1" source="ZQnLBsJhKJ1D6nGST1T2-20" target="ZQnLBsJhKJ1D6nGST1T2-13" edge="1">
          <mxGeometry width="160" relative="1" as="geometry">
            <mxPoint x="450" y="300" as="sourcePoint" />
            <mxPoint x="610" y="300" as="targetPoint" />
            <Array as="points">
              <mxPoint x="565" y="310" />
              <mxPoint x="800" y="310" />
              <mxPoint x="800" y="221" />
            </Array>
          </mxGeometry>
        </mxCell>
        <mxCell id="Q4dV0WzYGVip3ccKOifd-13" value="1..*" style="text;strokeColor=none;align=center;fillColor=none;html=1;verticalAlign=middle;whiteSpace=wrap;rounded=0;" parent="WIyWlLk6GJQsqaUBKTNV-1" vertex="1">
          <mxGeometry x="756" y="190" width="60" height="30" as="geometry" />
        </mxCell>
        <mxCell id="Q4dV0WzYGVip3ccKOifd-14" value="" style="endArrow=open;endFill=1;endSize=12;html=1;rounded=0;exitX=0;exitY=0.5;exitDx=0;exitDy=0;entryX=1;entryY=0.5;entryDx=0;entryDy=0;" parent="WIyWlLk6GJQsqaUBKTNV-1" source="ZQnLBsJhKJ1D6nGST1T2-32" target="ZQnLBsJhKJ1D6nGST1T2-43" edge="1">
          <mxGeometry width="160" relative="1" as="geometry">
            <mxPoint x="60" y="660" as="sourcePoint" />
            <mxPoint x="220" y="660" as="targetPoint" />
          </mxGeometry>
        </mxCell>
        <mxCell id="Q4dV0WzYGVip3ccKOifd-15" value="1..1" style="text;strokeColor=none;align=center;fillColor=none;html=1;verticalAlign=middle;whiteSpace=wrap;rounded=0;" parent="WIyWlLk6GJQsqaUBKTNV-1" vertex="1">
          <mxGeometry x="100" y="488" width="60" height="30" as="geometry" />
        </mxCell>
        <mxCell id="rVbirsfNpxbppj9PPnn6-0" value="Player" style="swimlane;fontStyle=1;align=center;verticalAlign=top;childLayout=stackLayout;horizontal=1;startSize=26;horizontalStack=0;resizeParent=1;resizeParentMax=0;resizeLast=0;collapsible=1;marginBottom=0;whiteSpace=wrap;html=1;" vertex="1" parent="WIyWlLk6GJQsqaUBKTNV-1">
          <mxGeometry x="-140" y="580" width="260" height="164" as="geometry" />
        </mxCell>
        <mxCell id="rVbirsfNpxbppj9PPnn6-1" value="- level: int" style="text;strokeColor=none;fillColor=none;align=left;verticalAlign=top;spacingLeft=4;spacingRight=4;overflow=hidden;rotatable=0;points=[[0,0.5],[1,0.5]];portConstraint=eastwest;whiteSpace=wrap;html=1;" vertex="1" parent="rVbirsfNpxbppj9PPnn6-0">
          <mxGeometry y="26" width="260" height="26" as="geometry" />
        </mxCell>
        <mxCell id="rVbirsfNpxbppj9PPnn6-2" value="" style="line;strokeWidth=1;fillColor=none;align=left;verticalAlign=middle;spacingTop=-1;spacingLeft=3;spacingRight=3;rotatable=0;labelPosition=right;points=[];portConstraint=eastwest;strokeColor=inherit;" vertex="1" parent="rVbirsfNpxbppj9PPnn6-0">
          <mxGeometry y="52" width="260" height="8" as="geometry" />
        </mxCell>
        <mxCell id="rVbirsfNpxbppj9PPnn6-5" value="+ Player(username: String, password: String)&amp;nbsp;" style="text;strokeColor=none;fillColor=none;align=left;verticalAlign=top;spacingLeft=4;spacingRight=4;overflow=hidden;rotatable=0;points=[[0,0.5],[1,0.5]];portConstraint=eastwest;whiteSpace=wrap;html=1;" vertex="1" parent="rVbirsfNpxbppj9PPnn6-0">
          <mxGeometry y="60" width="260" height="26" as="geometry" />
        </mxCell>
        <mxCell id="rVbirsfNpxbppj9PPnn6-6" value="+ getLevel(): int" style="text;strokeColor=none;fillColor=none;align=left;verticalAlign=top;spacingLeft=4;spacingRight=4;overflow=hidden;rotatable=0;points=[[0,0.5],[1,0.5]];portConstraint=eastwest;whiteSpace=wrap;html=1;" vertex="1" parent="rVbirsfNpxbppj9PPnn6-0">
          <mxGeometry y="86" width="260" height="26" as="geometry" />
        </mxCell>
        <mxCell id="rVbirsfNpxbppj9PPnn6-7" value="+ setLevel(): void" style="text;strokeColor=none;fillColor=none;align=left;verticalAlign=top;spacingLeft=4;spacingRight=4;overflow=hidden;rotatable=0;points=[[0,0.5],[1,0.5]];portConstraint=eastwest;whiteSpace=wrap;html=1;" vertex="1" parent="rVbirsfNpxbppj9PPnn6-0">
          <mxGeometry y="112" width="260" height="26" as="geometry" />
        </mxCell>
        <mxCell id="rVbirsfNpxbppj9PPnn6-3" value="+ getScore(): int" style="text;strokeColor=none;fillColor=none;align=left;verticalAlign=top;spacingLeft=4;spacingRight=4;overflow=hidden;rotatable=0;points=[[0,0.5],[1,0.5]];portConstraint=eastwest;whiteSpace=wrap;html=1;" vertex="1" parent="rVbirsfNpxbppj9PPnn6-0">
          <mxGeometry y="138" width="260" height="26" as="geometry" />
        </mxCell>
        <mxCell id="rVbirsfNpxbppj9PPnn6-8" value="Extends" style="endArrow=block;endSize=16;endFill=0;html=1;rounded=0;entryX=0;entryY=0.5;entryDx=0;entryDy=0;exitX=0.5;exitY=0;exitDx=0;exitDy=0;" edge="1" parent="WIyWlLk6GJQsqaUBKTNV-1" source="rVbirsfNpxbppj9PPnn6-0" target="ZQnLBsJhKJ1D6nGST1T2-9">
          <mxGeometry width="160" relative="1" as="geometry">
            <mxPoint x="-260" y="530" as="sourcePoint" />
            <mxPoint x="-200" y="370" as="targetPoint" />
            <Array as="points">
              <mxPoint x="-10" y="560" />
              <mxPoint x="-190" y="560" />
              <mxPoint x="-190" y="293" />
            </Array>
          </mxGeometry>
        </mxCell>
      </root>
    </mxGraphModel>
  </diagram>
</mxfile>
